<svg width="653" height="573" viewBox="0 0 653 573" fill="none" xmlns="http://www.w3.org/2000/svg">
<path d="M568.57 504.58C573.75 504.58 577.95 509.69 577.95 515.98C577.95 522.27 582.15 527.38 587.33 527.38C597.69 527.38 606.1 537.59 606.1 550.19C606.1 562.79 597.7 573 587.33 573H374.98C374.98 573 346.83 569.82 346.83 538.86C346.83 521.5 364.53 504.57 364.53 504.57H568.56L568.57 504.58Z" fill="#28283C"/>
<path d="M352.26 515.27L510.73 351.27C576.45 269.56 566.91 241.94 566.41 178.78C607.77 197.49 637.76 301.71 600.49 346.35C568.83 384.26 412.55 571.14 412.55 571.14L376.72 571.7C347.08 572.16 331.66 536.58 352.26 515.27Z" fill="#FF9900"/>
</svg>
