<svg viewBox="0 0 328 173" fill="none" xmlns="http://www.w3.org/2000/svg">
<path d="M319.443 75.26L296.893 43.69C302.603 35.7 321.993 8.54997 327.343 1.05997H290.013C288.643 2.77997 281.533 11.66 280.013 13.56V1.05997C275.413 1.05997 257.583 1.05997 252.653 1.05997C247.493 0.729971 241.113 1.15997 238.023 5.74997C226.463 -0.390028 176.873 4.20997 164.103 2.83997V5.58997C162.563 4.41997 160.873 3.43997 159.053 2.69997V1.12997C152.983 1.06997 133.893 1.00997 127.523 1.08997C107.333 0.419971 92.7832 0.219971 88.7732 23.98C87.8232 20.03 84.1332 4.73997 83.2532 1.09997H50.1632C49.3032 4.65997 45.5732 20.13 44.6432 23.98C43.6932 20.03 40.0032 4.71997 39.1232 1.06997C29.7632 1.06997 11.3532 1.09997 2.05322 1.10997C3.77322 6.65997 25.3132 76.23 27.5632 83.5H4.55322V112.77H33.4332C26.3332 121.84 12.5432 139.52 7.08322 147.03C-3.57678 161.1 -0.486777 171.16 12.7432 173H75.8832C82.5032 173 87.8932 167.58 87.8332 160.95C96.1732 174.07 132.883 167.33 145.573 168.86C153.303 168.86 160.113 164.9 164.113 158.91V168.86H198.473V146.99C199.733 148.38 217.563 168.04 218.303 168.86H249.383V165.25C253.193 169.67 267.943 167.32 273.023 167.87C284.913 167.87 308.773 167.87 320.743 167.87V139.02H310.563V113.42H320.743V86.33H327.343L319.433 75.26H319.443ZM79.5432 149.66C76.6632 140.96 59.4832 144.99 52.9532 144.14C58.1432 136.58 71.2032 119.73 76.5932 112.76H82.5732C82.7732 116.12 82.0332 149.2 83.1332 151.54C82.0632 150.72 80.8532 150.08 79.5432 149.66ZM133.473 139.58H116.933V112.76C120.433 112.76 130.123 112.74 133.473 112.83V139.58ZM121.883 57.06V53.87L137.593 33.45C137.863 33.1 138.143 32.76 138.433 32.44V57.06H121.883ZM214.393 117.79L198.463 103.44V56.45L214.393 81.38V117.79ZM217.563 33.4L198.463 33.46V31.11H217.563V33.4ZM280.013 84.57V72.48C280.483 73.15 288.273 84.26 288.503 84.57H280.013Z" fill="#E6E6E6"/>
<path d="M70.9332 151.14C72.3032 151.14 73.4132 152.25 73.4132 153.62C73.4132 154.99 74.5232 156.1 75.8932 156.1C78.6232 156.1 80.8432 158.32 80.8432 161.05C80.8432 163.78 78.6232 166 75.8932 166H40.9632C40.9632 166 33.5332 165.31 33.5332 158.59C33.5332 154.82 38.2032 151.15 38.2032 151.15H70.9332V151.14Z" fill="#28283C"/>
<path d="M171.103 161.86V88.22L221.403 133.51V85.63H242.383V161.86H221.403L191.463 128.85V161.86H171.103Z" fill="#28283C"/>
<path d="M242.373 40.39V25.15C242.373 16.72 235.533 9.87997 227.103 9.87997L171.103 9.84997V80.04L191.463 98.38V24.1H218.193C221.713 24.1 224.563 26.95 224.563 30.47V34.02C224.563 37.54 221.713 40.39 218.193 40.39L196.553 40.46L221.393 79.33H242.373L225.523 55.66H227.093C236.953 55.66 242.363 47.04 242.363 40.39H242.373Z" fill="#28283C"/>
<path d="M11.5532 8.09997L33.6132 79.33H55.6732L66.7132 35.06L75.2732 69.42L88.3632 52.18L77.7432 8.09997H55.6732L44.6432 53.84L33.6132 8.06997L11.5532 8.09997Z" fill="#28283C"/>
<path d="M303.563 118.8H273.023V133.65H303.563V118.8Z" fill="#28283C"/>
<path d="M280.453 106.42V91.57H270.483C262.253 91.57 255.583 98.24 255.583 106.47V115.27C256.563 111.07 259.913 108.39 265.923 107.06C268.963 106.39 277.583 106.42 280.243 106.42H280.453Z" fill="#28283C"/>
<path d="M273.903 154.7C272.983 152.88 273.023 147.74 273.023 146.15V8.05997H247.573C244.763 8.05997 242.483 10.34 242.483 13.15C242.483 15.96 244.763 18.24 247.573 18.24C250.383 18.24 252.663 20.52 252.663 23.33V157.15C252.663 159.2 254.323 160.87 256.383 160.87H285.153C279.393 160.28 275.723 158.29 273.903 154.7Z" fill="#FF9900"/>
<path d="M313.753 91.57H273.023V106.42H313.753V91.57Z" fill="#28283C"/>
<path d="M313.753 8.05997H293.393L273.033 33.51V38.61C271.453 36.38 268.373 34.88 264.573 34.04C262.583 33.6 257.703 33.53 254.693 33.52H242.383V44.71C242.383 47.49 245.213 50.32 248.233 50.32H273.023L293.383 79.34H313.743L288.293 43.71L313.743 8.07997L313.753 8.05997Z" fill="#28283C"/>
<path d="M145.563 90.59L132.723 90.52L11.5532 90.5V105.77L135.383 105.87C138.193 105.87 140.473 108.15 140.473 110.96V141.5C140.473 144.31 138.193 146.59 135.383 146.59H115.023C112.213 146.59 109.933 144.31 109.933 141.5V112.16H89.5732V146.59C89.5732 155.02 96.4132 161.86 104.843 161.86H145.573C154.003 161.86 160.843 155.02 160.843 146.59V105.86C160.843 97.43 154.003 90.59 145.573 90.59H145.563Z" fill="#28283C"/>
<path d="M73.8132 95.16C73.8132 95.16 72.2032 92.72 68.4532 92.34C70.5932 94.75 70.2232 97.69 67.0032 100.75C64.8032 102.84 60.0432 105.04 57.1732 105.85C57.1432 105.85 72.3232 105.85 72.3232 105.85C76.1932 102.44 76.0032 97.03 73.8132 95.16Z" fill="#FF9900"/>
<path d="M150.653 8.05997H128.223C124.223 8.05997 120.443 9.92997 118.023 13.12L43.2832 111.54C43.2832 111.54 20.0932 141.03 12.7432 151.14C11.1032 153.39 7.65322 158.57 7.65322 161.04C7.65322 163.51 9.46322 165.99 12.7432 165.99H43.2832C38.1932 165.99 33.5232 163.89 33.5232 158.58C33.5232 156.37 35.4332 153.61 38.1932 151.14C42.5332 147.25 53.4632 131.34 53.4632 131.34L132.043 29.18C134.983 25.36 138.943 22.46 143.473 20.82C152.113 17.68 161.723 21.54 165.793 29.78V23.21C165.793 14.85 159.013 8.06997 150.653 8.06997V8.05997Z" fill="#FF9900"/>
<path d="M152.053 8.12997V8.08997H151.183C151.473 8.09997 151.763 8.10997 152.053 8.12997Z" fill="#28283C"/>
<path d="M118.023 13.12C120.353 10.05 123.933 8.21997 127.763 8.08997H111.643C104.703 8.07997 98.6632 12.83 97.0332 19.58L89.5532 50.62L118.023 13.13V13.12Z" fill="#28283C"/>
<path d="M165.793 23.33V29.78C161.723 21.54 152.103 17.68 143.473 20.82C141.683 21.47 139.993 22.32 138.413 23.34H140.343C143.153 23.34 145.433 25.62 145.433 28.43V58.97C145.433 61.78 143.153 64.06 140.343 64.06H119.983C117.673 64.06 115.743 62.51 115.123 60.4V51.19L97.8932 73.6C100.693 77.09 104.983 79.34 109.813 79.34H150.543C158.973 79.34 165.813 72.5 165.813 64.07V23.33H165.793Z" fill="#28283C"/>
<path d="M273.023 146.93C273.023 149.02 273.103 153.11 273.903 154.69C275.723 158.28 279.393 160.28 285.153 160.86H313.753V146.01H273.023V146.93Z" fill="#28283C"/>
</svg>
