<svg width="654" height="574" viewBox="0 0 654 574" fill="none" xmlns="http://www.w3.org/2000/svg">
<path d="M0.7 80.25L54.35 253.48H108L134.83 145.83L155.65 229.39L187.49 187.46L161.65 80.25H108L81.18 191.5L54.35 80.2L0.7 80.25Z" fill="#28283C"/>
<path d="M165.33 524.93C237.348 524.93 295.73 471.294 295.73 405.13C295.73 338.966 237.348 285.33 165.33 285.33C93.3121 285.33 34.93 338.966 34.93 405.13C34.93 471.294 93.3121 524.93 165.33 524.93Z" fill="#FF9900"/>
<path d="M533.28 240.41C599.565 240.41 653.3 186.675 653.3 120.39C653.3 54.1048 599.565 0.369995 533.28 0.369995C466.995 0.369995 413.26 54.1048 413.26 120.39C413.26 186.675 466.995 240.41 533.28 240.41Z" fill="#676485"/>
<path d="M354.09 505.25C481.734 505.25 585.21 401.774 585.21 274.13C585.21 146.486 481.734 43.01 354.09 43.01C226.446 43.01 122.97 146.486 122.97 274.13C122.97 401.774 226.446 505.25 354.09 505.25Z" fill="#E6E6E6"/>
</svg>
